<svg xmlns="http://www.w3.org/2000/svg" viewBox="0 0 96 96" role="img" aria-labelledby="title">
  <title>Google Scholar</title>
  <defs>
    <linearGradient id="scholar-bg" x1="20" x2="76" y1="16" y2="82" gradientUnits="userSpaceOnUse">
      <stop offset="0" stop-color="#4f8ff7"/>
      <stop offset="1" stop-color="#1f5fc4"/>
    </linearGradient>
  </defs>
  <rect width="96" height="96" rx="18" fill="url(#scholar-bg)"/>
  <circle cx="48" cy="56" r="22" fill="#fff"/>
  <path fill="#fff" d="M12 34 48 16l36 18-36 18L12 34Z"/>
  <path fill="#dfeafb" d="M30 43.1 48 52l18-8.9V57c0 8.6-8.1 15.5-18 15.5S30 65.6 30 57V43.1Z"/>
  <path fill="#1f5fc4" d="M48 39.5 20.8 26 48 12.5 75.2 26 48 39.5Z" opacity=".14"/>
  <path fill="#1f5fc4" d="M72.5 37.6a3 3 0 0 1 6 0v23.1a3 3 0 1 1-6 0V37.6Z"/>
  <circle cx="75.5" cy="64.8" r="5.2" fill="#1f5fc4"/>
</svg>
